<?xml version="1.0" encoding="UTF-8" standalone="no"?>
<svg
  >
  <path
     d="m 96.446,17.719 v 0 L 82.826,4.1 C 81.525611,2.7857221 79.436264,2.6836862 78.014,3.865 69.805,10.63 40.9,34.81 13.61,61.91 c -1.071675,1.058841 -1.360829,2.677621 -0.722,4.042 l -0.8,0.8 c -0.719054,0.732163 -1.045926,1.763295 -0.88,2.776 0.94093,5.34534 -0.431177,10.838856 -3.775,15.114 -0.6900842,0.853973 -0.64266,2.086575 0.111,2.885 l -4.682,4.684 c -0.5997274,0.598275 -0.4307095,1.609319 0.331,1.98 l 5.414,2.642 c 0.4724118,0.232163 1.0401384,0.138547 1.413,-0.233 l 3.357,-3.357 c 0.773463,0.534581 1.809575,0.482898 2.526,-0.126 4.276242,-3.342508 9.768754,-4.71609 15.115,-3.78 1.012937,0.165789 2.044329,-0.160188 2.778,-0.878 l 0.8,-0.8 c 0.469835,0.219108 0.981591,0.333741 1.5,0.336 H 36.1 c 0.95249,0.001 1.865487,-0.380524 2.534,-1.059 C 65.74,59.639 89.916,30.74 96.68,22.532 97.857377,21.108219 97.755941,19.021851 96.446,17.719 Z M 8.9,94.229 l -3.069,-1.5 3.449,-3.45 2.284,2.284 z M 31.4,86.9 C 25.444662,85.871078 19.330222,87.376215 14.533,91.052 L 9.5,86.012 c 3.677686,-4.797081 5.183,-10.912961 4.152,-16.869 -0.0433,-0.233708 0.02598,-0.474162 0.187,-0.649 l 0.634,-0.634 18.211,18.216 -0.634,0.635 c -0.176542,0.158764 -0.415853,0.228348 -0.65,0.189 z"
    />
</svg>