<?xml version="1.0" encoding="UTF-8"?>
<svg
    xmlns="http://www.w3.org/2000/svg"
    xmlns:xlink="http://www.w3.org/1999/xlink" version="1.1" x="0px" y="0px" viewBox="0 0 140 175" enable-background="new 0 0 140 140" xml:space="preserve">
    <path d="M69.9995117,134.9135742c33.9482422,0,61.5664063-29.1235352,61.5664063-64.9208984  c0-0.4594727-0.0048828-0.918457-0.0136719-1.3754883c-0.1201172-6.1567383-5.1777344-10.9584961-11.6201172-10.9584961  c-0.0214844,0-0.0439453,0-0.0664063,0c-13.5166016,0-24.5126953-15.2416992-24.5126953-33.9760742v-0.1186523  c0.0214844-8.4189453-5.7265625-15.6982422-13.6679688-17.3076172c-3.8300781-0.7763672-7.7626953-1.1699219-11.6855469-1.1699219  c-33.9472656,0-61.5654297,29.1166992-61.5654297,64.90625C8.434082,105.7900391,36.0522461,134.9135742,69.9995117,134.9135742z   M69.9995117,7.0864258c3.7900391,0,7.5878906,0.3803711,11.2890625,1.1298828  c7.0087891,1.4208984,12.0830078,7.8735352,12.0644531,15.3452148v0.1210938  c0,19.8374023,11.8935547,35.9760742,26.5126953,35.9760742c0.0019531,0,0.1025391-0.0004883,0.1035156-0.0004883  c0.0185547,0,0.0361328,0,0.0537109,0c5.25,0,9.4306641,3.9423828,9.5292969,8.9980469  c0.0087891,0.4443359,0.0136719,0.8896484,0.0136719,1.3364258c0,34.6948242-26.7216797,62.9208984-59.5664063,62.9208984  S10.434082,104.6875,10.434082,69.9926758C10.434082,35.3061523,37.1547852,7.0864258,69.9995117,7.0864258z" />
    <!-- <path d="M72.9799805,45.6303711c5.7734375,0,10.4707031-6.0844727,10.4707031-13.5634766  c0-7.4785156-4.6972656-13.5629883-10.4707031-13.5629883s-10.4707031,6.0844727-10.4707031,13.5629883  C62.5092773,39.5458984,67.206543,45.6303711,72.9799805,45.6303711z M72.9799805,20.5039063  c4.6708984,0,8.4707031,5.1870117,8.4707031,11.5629883s-3.7998047,11.5634766-8.4707031,11.5634766  s-8.4707031-5.1875-8.4707031-11.5634766S68.309082,20.5039063,72.9799805,20.5039063z" />
    <path d="M89.3276367,71c4.3662109,0,7.9179688-4.5654297,7.9179688-10.1767578  c0-5.6118164-3.5517578-10.1772461-7.9179688-10.1772461s-7.9179688,4.5654297-7.9179688,10.1772461  C81.409668,66.4345703,84.9614258,71,89.3276367,71z M89.3276367,52.6459961c3.2626953,0,5.9179688,3.668457,5.9179688,8.1772461  S92.590332,69,89.3276367,69s-5.9179688-3.6679688-5.9179688-8.1767578S86.0649414,52.6459961,89.3276367,52.6459961z" />
    <path d="M110.9750977,93.2890625c5.2099609,0,9.4482422-5.4760742,9.4482422-12.206543s-4.2382813-12.206543-9.4482422-12.206543  s-9.4482422,5.4760742-9.4482422,12.206543S105.7651367,93.2890625,110.9750977,93.2890625z M110.9750977,70.8759766  c4.1074219,0,7.4482422,4.5786133,7.4482422,10.206543s-3.3408203,10.206543-7.4482422,10.206543  s-7.4482422-4.5786133-7.4482422-10.206543S106.8676758,70.8759766,110.9750977,70.8759766z" />
    <path d="M90.8579102,93.2290039c-5.2099609,0-9.4482422,5.4760742-9.4482422,12.2070313  c0,6.7304688,4.2382813,12.206543,9.4482422,12.206543s9.4482422-5.4760742,9.4482422-12.206543  C100.3061523,98.7050781,96.0678711,93.2290039,90.8579102,93.2290039z M90.8579102,115.6425781  c-4.1074219,0-7.4482422-4.5786133-7.4482422-10.206543c0-5.628418,3.3408203-10.2070313,7.4482422-10.2070313  s7.4482422,4.5786133,7.4482422,10.2070313C98.3061523,111.0639648,94.965332,115.6425781,90.8579102,115.6425781z" />
    <path d="M61.5522461,123.8271484c5.2089844,0,9.4472656-5.4760742,9.4472656-12.206543s-4.2382813-12.206543-9.4472656-12.206543  c-5.2099609,0-9.4482422,5.4760742-9.4482422,12.206543S56.3422852,123.8271484,61.5522461,123.8271484z M61.5522461,101.4140625  c4.1064453,0,7.4472656,4.5786133,7.4472656,10.206543s-3.3408203,10.206543-7.4472656,10.206543  c-4.1074219,0-7.4482422-4.5786133-7.4482422-10.206543S57.4448242,101.4140625,61.5522461,101.4140625z" />
    <path d="M36.8911133,110.6845703c5.2099609,0,9.4482422-5.4760742,9.4482422-12.2070313  c0-6.7304688-4.2382813-12.206543-9.4482422-12.206543s-9.4482422,5.4760742-9.4482422,12.206543  C27.4428711,105.2084961,31.6811523,110.6845703,36.8911133,110.6845703z M36.8911133,88.2709961  c4.1074219,0,7.4482422,4.5786133,7.4482422,10.206543c0,5.628418-3.3408203,10.2070313-7.4482422,10.2070313  s-7.4482422-4.5786133-7.4482422-10.2070313C29.4428711,92.8496094,32.7836914,88.2709961,36.8911133,88.2709961z" />
    <path d="M37.8911133,67.8466797c0-6.7304688-4.2382813-12.206543-9.4482422-12.206543s-9.4482422,5.4760742-9.4482422,12.206543  s4.2382813,12.206543,9.4482422,12.206543S37.8911133,74.5771484,37.8911133,67.8466797z M20.9946289,67.8466797  c0-5.6279297,3.3408203-10.206543,7.4482422-10.206543s7.4482422,4.5786133,7.4482422,10.206543  s-3.3408203,10.206543-7.4482422,10.206543S20.9946289,73.4746094,20.9946289,67.8466797z" />
    <path d="M38.324707,47.2773438c3.1611328,0,6.6533203-1.4545898,9.4287109-4.2294922  c2.2695313-2.2695313,3.7382813-5.0825195,4.1367188-7.9208984c0.4130859-2.9433594-0.3632813-5.5683594-2.1865234-7.3911133  s-4.4472656-2.5991211-7.390625-2.1865234c-2.8388672,0.3984375-5.6523438,1.8676758-7.921875,4.137207  c-4.7587891,4.7587891-5.6337891,11.6279297-1.9501953,15.3120117C33.9770508,46.5341797,36.065918,47.2773438,38.324707,47.2773438  z M35.8051758,31.1005859c1.9638672-1.9638672,4.3740234-3.2319336,6.7851563-3.5703125  c2.3095703-0.3237305,4.3320313,0.2519531,5.6992188,1.6196289c1.3681641,1.3686523,1.9433594,3.3925781,1.6201172,5.6992188  c-0.3388672,2.4111328-1.6064453,4.8203125-3.5703125,6.784668c-3.9785156,3.9785156-9.578125,4.8540039-12.484375,1.9506836  C30.9516602,40.6801758,31.8256836,35.0800781,35.8051758,31.1005859z" />
    <path d="M88.0415039,61.8227539c0.5527344,0,1-0.4477539,1-1c0-1.0537109,0.6455078-1.7021484,0.9228516-1.9321289  c0.4257813-0.3520508,0.484375-0.9824219,0.1328125-1.4077148c-0.3535156-0.425293-0.9833984-0.4863281-1.4082031-0.1323242  c-0.4951172,0.4101563-1.6474609,1.5698242-1.6474609,3.472168C87.0415039,61.375,87.4887695,61.8227539,88.0415039,61.8227539z" />
    <path d="M108.7124023,82.0825195c0.5527344,0,1-0.4477539,1-1c0-2.4116211,1.0722656-3.7871094,1.4443359-4.0380859  c0.4648438-0.0859375,0.8173828-0.4936523,0.8173828-0.9833984c0-0.5522461-0.4472656-1-1-1  c-1.2988281,0-3.2617188,2.4018555-3.2617188,6.0214844C107.7124023,81.6347656,108.159668,82.0825195,108.7124023,82.0825195z" />
    <path d="M90.8588867,99.4140625c-1.2988281,0-3.2636719,2.4018555-3.2636719,6.0214844c0,0.5522461,0.4472656,1,1,1s1-0.4477539,1-1  c0-2.4121094,1.0732422-3.7875977,1.4462891-4.0380859c0.4648438-0.0854492,0.8173828-0.4931641,0.8173828-0.9833984  C91.8588867,99.8618164,91.4116211,99.4140625,90.8588867,99.4140625z" />
    <path d="M69.6938477,33.0668945c0.5527344,0,1-0.4477539,1-1c0-3.5068359,1.8251953-5.3178711,2.2851563-5.3779297  c0.5527344,0,1-0.4477539,1-1s-0.4472656-1-1-1c-1.9814453,0-4.2851563,3.2226563-4.2851563,7.3779297  C68.6938477,32.6191406,69.1411133,33.0668945,69.6938477,33.0668945z" />
    <path d="M59.2885742,112.6206055c0.5527344,0,1-0.4477539,1-1c0-2.4116211,1.0722656-3.7871094,1.4453125-4.0380859  c0.4648438-0.0859375,0.8173828-0.4936523,0.8173828-0.9833984c0-0.5522461-0.4472656-1-1-1  c-1.2988281,0-3.2626953,2.4018555-3.2626953,6.0214844C58.2885742,112.1728516,58.7358398,112.6206055,59.2885742,112.6206055z" />
    <path d="M34.628418,99.4775391c0.5527344,0,1-0.4477539,1-1c0-2.4121094,1.0712891-3.7875977,1.4443359-4.0380859  c0.4648438-0.0859375,0.8173828-0.4936523,0.8173828-0.9833984c0-0.5522461-0.4472656-1-1-1  c-1.2988281,0-3.2617188,2.4018555-3.2617188,6.0214844C33.628418,99.0297852,34.0756836,99.4775391,34.628418,99.4775391z" />
    <path d="M28.6264648,63.8085938c0.4648438-0.0854492,0.8173828-0.4931641,0.8173828-0.9833984c0-0.5522461-0.4472656-1-1-1  c-1.2988281,0-3.2636719,2.4018555-3.2636719,6.0214844c0,0.5522461,0.4472656,1,1,1s1-0.4477539,1-1  C27.1801758,65.434082,28.253418,64.059082,28.6264648,63.8085938z" />
    <path d="M39.472168,35.7661133c0.2558594,0,0.5117188-0.0976563,0.7070313-0.2924805  c1.3632813-1.3623047,2.8085938-1.8457031,3.6328125-1.8457031c0.5527344,0,1-0.4477539,1-1s-0.4472656-1-1-1  c-0.6132813,0-2.7900391,0.175293-5.046875,2.4306641c-0.390625,0.390625-0.390625,1.0239258,0,1.4145508  C38.9604492,35.668457,39.2163086,35.7661133,39.472168,35.7661133z" /> -->

</svg>