<?xml version="1.0" encoding="utf-8"?>
<!-- Generator: Adobe Illustrator 24.0.0, SVG Export Plug-In . SVG Version: 6.00 Build 0)  -->
<svg version="1.1" id="Layer_1" xmlns="http://www.w3.org/2000/svg" xmlns:xlink="http://www.w3.org/1999/xlink" x="0px" y="0px"
	 viewBox="0 0 889.7 1227.4" style="enable-background:new 0 0 889.7 1227.4;" xml:space="preserve">
<style type="text/css">
	.st0{fill:#FCFCFC;stroke:#000000;stroke-miterlimit:10;}
	.st1{fill:none;stroke:#000000;stroke-miterlimit:10;}
</style>
<path class="st0" d="M438.7,1153.9c-233.3,0-423.9-244.1-423.9-544.2c0-4.1,0-7.5,0-11.8c0.6-51.9,35.8-92.2,79.8-92.2
	c0,0,0,0,0.6,0c92.9,0,168.6-127.5,168.6-285.1v-0.9c0-70.4,39.3-131.6,94.2-145.1c26.2-5.6,53.8-9,80.6-9
	c233.3,0,424,243.9,424,544.1S672.1,1153.9,438.7,1153.9z"/>
<path class="st1" d="M223.8,636.7c-28.8,0-52.2-26.8-52.2-59.7s23.4-59.7,52.2-59.7S276,544.1,276,577S252.6,636.7,223.8,636.7z"/>
</svg>
