<?xml version="1.0" encoding="UTF-8" standalone="no"?>
<svg>

  <path
     d="m 95.9,6.508 -2.4,-2.4 c -2.141229,-2.1392715 -5.610771,-2.1392715 -7.752,0 L 84.819,5.038 84.49,4.709 c -2.805553,-2.7981889 -7.346447,-2.7981889 -10.152,0 L 54.514,24.525 c -0.482808,0.481088 -0.482808,1.262912 0,1.744 1.23011,1.225387 2.866607,1.957541 4.6,2.058 L 39.5,47.946 v 0 0 L 16.717,70.728 v 0 c -0.902369,0.904619 -1.676263,1.92885 -2.3,3.044 L 4.048,92.247 c -0.2719653,0.481163 -0.1902039,1.084562 0.2,1.476 L 4.39,93.864 2.863,95.4 c -1.1626662,1.162666 0.5813338,2.906666 1.744,1.744 l 1.53,-1.531 0.142,0.142 c 0.3912727,0.389716 0.9940774,0.471452 1.475,0.2 L 26.229,85.588 c 1.11556,-0.623109 2.139873,-1.397065 3.044,-2.3 L 94.546,18.01 c 0.717295,-0.732229 0.854599,-1.854434 0.335,-2.738 L 95.9,14.256 c 2.137159,-2.140541 2.137159,-5.6074587 0,-7.748 z M 76.08,6.449 c 1.505769,-1.4926943 3.823183,-1.7955708 5.662,-0.74 L 66.72,20.726 c -0.07861,-1.310666 -0.518524,-2.573986 -1.271,-3.65 z m -18.81,18.807 6.393,-6.393 c 1.054992,1.837745 0.752541,4.153803 -0.739,5.659 v 0.005 c -1.525879,1.446097 -3.811217,1.740758 -5.654,0.729 z M 7.361,93.345 7.012,93 v 0 H 7.007 L 6.66,92.652 16.568,74.99 c 0.02,-0.036 0.048,-0.068 0.069,-0.1 l 8.494,8.495 c -0.037,0.021 -0.069,0.049 -0.106,0.07 z m 43.82,-35.459 -9.066,-9.066 41.5,-41.5 0.325,0.326 v 0 h 0.005 l 8.4,8.4 v 0 0 l 0.324,0.323 z M 94.15,12.512 93.221,13.442 86.558,6.779 87.487,5.848 c 1.178017,-1.1752087 3.084983,-1.1752087 4.263,0 l 2.4,2.4 c 1.178634,1.1769891 1.178634,3.087011 0,4.264 z"/>
</svg>