<?xml version="1.0" encoding="UTF-8" standalone="no"?>
<svg>

  <path
     d="M 95.958,12.164 87.811,4.017 c -2.116573,-2.0223626 -5.449427,-2.0223626 -7.566,0 L 15.532,68.729 c -0.803223,0.80196 -1.455015,1.742385 -1.924,2.776 L 7.079,85.867 7.064,85.902 2.585,95.755 c -0.4713296,1.038493 0.5965066,2.10633 1.635,1.635 l 9.867,-4.485 v 0 L 28.47,86.367 c 1.033615,-0.468985 1.97404,-1.120777 2.776,-1.924 L 95.958,19.73 c 2.089277,-2.0893 2.089277,-5.4767 0,-7.566 z M 84.028,28.171 71.805,15.947 74.716,13.035 86.939,25.26 Z M 30.483,81.716 c -0.65181,0.621842 -1.67719,0.621842 -2.329,0 -0.644262,-0.641105 -0.644262,-1.683895 0,-2.325 0.09609,-0.101548 0.173903,-0.218943 0.23,-0.347 0.227557,-0.159205 0.44222,-0.336085 0.642,-0.529 l 50.928,-50.928 2.329,2.329 z m -9.9,-9.895 c -0.651137,0.621589 -1.675863,0.621589 -2.327,0 -0.642939,-0.642826 -0.642939,-1.685174 0,-2.328 l 51.8,-51.8 2.328,2.329 -50.922,50.925 c -0.192784,0.200878 -0.369965,0.41617 -0.53,0.644 -0.127616,0.05636 -0.244641,0.134145 -0.346,0.23 z m -4.766,0.785 c 0.742812,1.527378 2.397921,2.388441 4.075,2.12 v 0 c 0,2.954723 2.395277,5.35 5.35,5.35 v 0 c -0.20076,1.24919 0.23338,2.516369 1.158,3.38 0.284573,0.279283 0.608715,0.515146 0.962,0.7 L 14.414,90.044 C 13.753709,87.899815 12.075185,86.221291 9.931,85.561 Z m -6.91,15.2 c 1.598399,0.41081 2.846699,1.658728 3.258,3.257 L 6.2,93.78 Z m 85.3,-69.823 -5.529,5.53 L 76.461,11.29 81.99,5.762 c 1.126203,-1.1239944 2.949797,-1.1239944 4.076,0 l 8.147,8.147 c 1.122895,1.126657 1.122895,2.949343 0,4.076 z"
 />
</svg>