<?xml version="1.0" encoding="utf-8"?>
<!-- Generator: Adobe Illustrator 22.0.0, SVG Export Plug-In . SVG Version: 6.00 Build 0)  -->
<svg version="1.1" id="Layer_1" xmlns="http://www.w3.org/2000/svg" xmlns:xlink="http://www.w3.org/1999/xlink" x="0px" y="0px"
	 viewBox="0 0 1107.5 910.8" style="enable-background:new 0 0 1107.5 910.8;" xml:space="preserve">
<style type="text/css">
	.st0{fill:#FFFFFF;stroke:#C6C6C6;stroke-miterlimit:10;}
	.st1{fill:none;stroke:#DADBDC;stroke-width:0.25;}
	.st2{fill:#0165C3;}
	.st3{fill:none;stroke:#000000;stroke-miterlimit:10;}
	.st4{font-family:'SegoeUI';}
	.st5{font-size:12px;}
	.st6{fill:#F5F6F7;}
	.st7{fill:#444444;}
	.st8{fill:none;stroke:#E3E5E6;stroke-width:0.5;}
	.st9{fill:#FFFFFF;stroke:#DADBDC;stroke-width:0.25;}
	.st10{fill:#FFFFFF;stroke:#5F779D;stroke-width:0.25;stroke-miterlimit:10;}
	.st11{display:none;}
	.st12{display:inline;}
	.st13{fill:#EFCE4A;}
	.st14{fill:#EBBA16;}
	.st15{fill:#F4EFDC;}
	.st16{fill:#CEC9AE;}
	.st17{fill:#D1BF86;}
	.st18{fill:#F0F0F0;}
	.st19{fill:#CDCDCD;}
	.st20{fill:#030104;}
	.st21{font-size:9px;}
	.st22{font-size:14px;}
</style>
<g id="Onglets">
	<rect id="windowBounds" x="62.2" y="101.1" class="st0" width="830.8" height="645.9"/>
	<path class="st1" d="M63.1,127.3h180.3v-25.5h50.5v25.5h598.5c0,107,0,120.2,0,120.2H63.1V127.3z"/>
	<g>
		<g>
			<rect x="62.9" y="101.9" class="st2" width="58.2" height="22.8"/>
		</g>
		<g id="controls_1_">
			<path id="Maximize_1_" class="st3" d="M848.7,119.6h-10v-10h10V119.6z"/>
			<g id="Close_1_">
				<line class="st3" x1="872" y1="109.4" x2="882.1" y2="119.4"/>
				<line class="st3" x1="882.1" y1="109.4" x2="871.6" y2="119.8"/>
			</g>
			<line id="Minimize_1_" class="st3" x1="801.5" y1="116.9" x2="815.7" y2="116.9"/>
		</g>
		<text transform="matrix(1 0 0 1 81 118)" class="st4 st5">File</text>
		<text transform="matrix(1 0 0 1 139.5 118)" class="st4 st5">Home</text>
		<text transform="matrix(1 0 0 1 192.5 118)" class="st4 st5">Share</text>
		<text transform="matrix(1 0 0 1 258.1 118)" class="st4 st5">View</text>
	</g>
</g>
<g id="TopBar">
	<rect id="Background" x="63.1" y="127.3" class="st6" width="829.2" height="120.2"/>
	<g>
		<path class="st7" d="M81.3,139.2v52.2h52.2v-52.2H81.3z M123.7,188.1H84.6V149h39.1V188.1z M130.3,188.1H127v-3.3h3.3V188.1z
			 M130.3,181.6H127v-26.1h3.3V181.6z M130.3,152.2H127V149h3.3V152.2z"/>
	</g>
	<g>
		<g>
			<path class="st7" d="M152.4,200.2v13.6H166v-13.6H152.4z M163.4,212.9h-10.2v-10.2h10.2V212.9z M165.1,212.9h-0.8V212h0.8V212.9z
				 M165.1,211.2h-0.8v-6.8h0.8V211.2z M165.1,203.5h-0.8v-0.8h0.8V203.5z"/>
		</g>
		<g>
			<path class="st7" d="M152,172.4V186h13.6v-13.6H152z M163.1,185.1h-10.2v-10.2h10.2V185.1z M164.8,185.1H164v-0.8h0.8V185.1z
				 M164.8,183.4H164v-6.8h0.8V183.4z M164.8,175.8H164V175h0.8V175.8z"/>
		</g>
		<g>
			<path class="st7" d="M152.4,145.6v13.6H166v-13.6H152.4z M163.4,158.3h-10.2v-10.2h10.2V158.3z M165.1,158.3h-0.8v-0.8h0.8V158.3
				z M165.1,156.6h-0.8v-6.8h0.8V156.6z M165.1,149h-0.8v-0.8h0.8V149z"/>
		</g>
	</g>
	<line id="border" class="st8" x1="254.4" y1="138.3" x2="254.4" y2="233.3"/>
	<line id="border_1_" class="st8" x1="520.1" y1="138.3" x2="520.1" y2="233.3"/>
	<g>
		<g>
			<rect x="260.6" y="142.2" class="st9" width="253" height="77.2"/>
			<g>
				<path d="M277.6,160h-7.3c-0.3,0-0.5-0.2-0.5-0.5s0.2-0.5,0.5-0.5h7.3c0.3,0,0.5,0.2,0.5,0.5S277.9,160,277.6,160z"/>
				<path d="M277.6,156.6h-7.3c-0.3,0-0.5-0.2-0.5-0.5s0.2-0.5,0.5-0.5h7.3c0.3,0,0.5,0.2,0.5,0.5
					C278.1,156.4,277.9,156.6,277.6,156.6z"/>
				<path d="M277.6,153.2h-7.3c-0.3,0-0.5-0.2-0.5-0.5s0.2-0.5,0.5-0.5h7.3c0.3,0,0.5,0.2,0.5,0.5S277.9,153.2,277.6,153.2z"/>
				<circle cx="268" cy="152.7" r="0.7"/>
				<circle cx="268" cy="156.1" r="0.7"/>
				<circle cx="268" cy="159.4" r="0.7"/>
				<text transform="matrix(1 0 0 1 289 159.5)" class="st4 st5">Extra large icons</text>
			</g>
			<g>
				<path d="M278.8,182.2h-7.3c-0.3,0-0.5-0.2-0.5-0.5s0.2-0.5,0.5-0.5h7.3c0.3,0,0.5,0.2,0.5,0.5
					C279.3,181.9,279.1,182.2,278.8,182.2z"/>
				<path d="M278.8,178.8h-7.3c-0.3,0-0.5-0.2-0.5-0.5s0.2-0.5,0.5-0.5h7.3c0.3,0,0.5,0.2,0.5,0.5S279.1,178.8,278.8,178.8z"/>
				<path d="M278.8,175.4h-7.3c-0.3,0-0.5-0.2-0.5-0.5s0.2-0.5,0.5-0.5h7.3c0.3,0,0.5,0.2,0.5,0.5S279.1,175.4,278.8,175.4z"/>
				<circle cx="269.2" cy="174.9" r="0.7"/>
				<circle cx="269.2" cy="178.3" r="0.7"/>
				<circle cx="269.2" cy="181.6" r="0.7"/>
				<text transform="matrix(1 0 0 1 289 182.3)" class="st4 st5">Large icons</text>
			</g>
			<g>
				<path d="M278.8,206.1h-7.3c-0.3,0-0.5-0.2-0.5-0.5s0.2-0.5,0.5-0.5h7.3c0.3,0,0.5,0.2,0.5,0.5
					C279.3,205.9,279.1,206.1,278.8,206.1z"/>
				<path d="M278.8,202.7h-7.3c-0.3,0-0.5-0.2-0.5-0.5s0.2-0.5,0.5-0.5h7.3c0.3,0,0.5,0.2,0.5,0.5S279.1,202.7,278.8,202.7z"/>
				<path d="M278.8,199.3h-7.3c-0.3,0-0.5-0.2-0.5-0.5s0.2-0.5,0.5-0.5h7.3c0.3,0,0.5,0.2,0.5,0.5S279.1,199.3,278.8,199.3z"/>
				<circle cx="269.2" cy="198.8" r="0.7"/>
				<circle cx="269.2" cy="202.2" r="0.7"/>
				<circle cx="269.2" cy="205.5" r="0.7"/>
				<text transform="matrix(1 0 0 1 289 206.1)" class="st4 st5">Small icons</text>
			</g>
			<g>
				<path d="M428.3,161.2H421c-0.3,0-0.5-0.2-0.5-0.5s0.2-0.5,0.5-0.5h7.3c0.3,0,0.5,0.2,0.5,0.5S428.6,161.2,428.3,161.2z"/>
				<path d="M428.3,157.8H421c-0.3,0-0.5-0.2-0.5-0.5s0.2-0.5,0.5-0.5h7.3c0.3,0,0.5,0.2,0.5,0.5S428.6,157.8,428.3,157.8z"/>
				<path d="M428.3,154.4H421c-0.3,0-0.5-0.2-0.5-0.5s0.2-0.5,0.5-0.5h7.3c0.3,0,0.5,0.2,0.5,0.5S428.6,154.4,428.3,154.4z"/>
				<circle cx="418.7" cy="153.9" r="0.7"/>
				<circle cx="418.7" cy="157.3" r="0.7"/>
				<circle cx="418.7" cy="160.7" r="0.7"/>
				<text transform="matrix(1 0 0 1 438.5 161.2)" class="st4 st5">List</text>
			</g>
			<g>
				<g>
					<path d="M429.2,182.2H422c-0.3,0-0.5-0.2-0.5-0.5s0.2-0.5,0.5-0.5h7.3c0.3,0,0.5,0.2,0.5,0.5
						C429.8,181.9,429.5,182.2,429.2,182.2z"/>
					<path d="M429.2,178.8H422c-0.3,0-0.5-0.2-0.5-0.5s0.2-0.5,0.5-0.5h7.3c0.3,0,0.5,0.2,0.5,0.5S429.5,178.8,429.2,178.8z"/>
					<path d="M429.2,175.4H422c-0.3,0-0.5-0.2-0.5-0.5s0.2-0.5,0.5-0.5h7.3c0.3,0,0.5,0.2,0.5,0.5S429.5,175.4,429.2,175.4z"/>
					<circle cx="419.7" cy="174.9" r="0.7"/>
					<circle cx="419.7" cy="178.3" r="0.7"/>
					<circle cx="419.7" cy="181.6" r="0.7"/>
				</g>
				<text transform="matrix(1 0 0 1 438.5 182.3)" class="st4 st5">Details</text>
			</g>
		</g>
		<rect id="checkbox_3_" x="528.3" y="148.2" class="st10" width="13.9" height="13.9"/>
		<text transform="matrix(1 0 0 1 553.75 159)" class="st4 st5">Item check boxes</text>
		<g id="tick" class="st11">
			<path class="st12" d="M541.3,150.5c-0.2-0.2-0.6-0.2-0.8,0l-7,7l-2.7-2.7c-0.2-0.2-0.6-0.2-0.8,0s-0.2,0.6,0,0.8l3.1,3.1
				c0.2,0.2,0.6,0.2,0.8,0l7.5-7.5C541.5,151.1,541.5,150.8,541.3,150.5z"/>
		</g>
	</g>
	<g>
		<rect id="checkbox_1_" x="528.3" y="175.4" class="st10" width="13.9" height="13.9"/>
		<text transform="matrix(1 0 0 1 553.75 186.15)" class="st4 st5">File name extension</text>
		<g id="tick_1_" class="st11">
			<rect x="529.7" y="176.9" class="st12" width="11" height="11"/>
		</g>
	</g>
	<g>
		<rect id="checkbox_2_" x="528.3" y="203.7" class="st10" width="13.9" height="13.9"/>
		<text transform="matrix(1 0 0 1 553.75 214.5)" class="st4 st5">Hidden items</text>
		<g id="tick_2_" class="st11">
			<rect x="529.7" y="205.2" class="st12" width="11" height="11"/>
		</g>
	</g>
</g>
<g id="Container">
	<g id="Folder_x5F_4">
		<path class="st13" d="M343.3,357.2H275c-1.6,0-2.7-1.5-2.3-3l15.5-42.5c0.3-1,1.2-1.8,2.3-1.8h68.3c1.6,0,2.3,1.5,2.3,3
			l-15.5,42.5C345.3,356.5,344.4,357.2,343.3,357.2z"/>
		<g>
			<path class="st14" d="M349.3,296.2h-38.5l-7.6-10.7h-27.9c-1.5,0-2.6,1.2-2.6,2.6v65.2c0.1,0,0.2,0,0.3,0l15.3-41.7
				c0.3-1,1.2-1.8,2.3-1.8H352v-11.1C352,297.4,350.8,296.2,349.3,296.2z"/>
		</g>
		<text transform="matrix(1 0 0 1 289 378.3)" class="st4 st5">projects</text>
	</g>
	<g id="Folder_x5F_3">
		<path class="st13" d="M475.8,359.9h-68.3c-1.6,0-2.7-1.5-2.3-3l15.5-42.5c0.3-1,1.2-1.8,2.3-1.8h68.3c1.6,0,2.3,1.5,2.3,3
			l-15.5,42.5C477.8,359.2,476.9,359.9,475.8,359.9z"/>
		<g>
			<path class="st14" d="M481.8,298.9h-38.5l-7.6-10.7h-27.9c-1.5,0-2.6,1.2-2.6,2.6V356c0.1,0,0.2,0,0.3,0l15.3-41.7
				c0.3-1,1.2-1.8,2.3-1.8h61.4v-11.1C484.5,300.1,483.3,298.9,481.8,298.9z"/>
		</g>
		<text transform="matrix(1 0 0 1 425.65 378.3)" class="st4 st5">videos</text>
	</g>
	<g id="Folder_x5F_2">
		<path class="st13" d="M603.6,359.9h-68.3c-1.6,0-2.7-1.5-2.3-3l15.5-42.5c0.3-1,1.2-1.8,2.3-1.8h68.3c1.6,0,2.3,1.5,2.3,3
			l-15.5,42.5C605.6,359.2,604.7,359.9,603.6,359.9z"/>
		<g>
			<path class="st14" d="M609.6,298.9h-38.5l-7.6-10.7h-27.9c-1.5,0-2.6,1.2-2.6,2.6V356c0.1,0,0.2,0,0.3,0l15.3-41.7
				c0.3-1,1.2-1.8,2.3-1.8h61.4v-11.1C612.3,300.1,611.1,298.9,609.6,298.9z"/>
		</g>
		<text transform="matrix(1 0 0 1 556.7501 381.3002)" class="st4 st5">videos</text>
	</g>
	<g id="Folder_x5F_1">
		<path class="st13" d="M739.1,359.2h-67.4c-1.6,0-2.7-1.5-2.3-3l15.3-42c0.3-1,1.2-1.7,2.3-1.7h67.4c1.6,0,2.3,1.5,2.3,3l-15.3,42
			C741.1,358.5,740.1,359.2,739.1,359.2z"/>
		<path class="st14" d="M745,298.9h-3.4v13.6h6v-10.9C747.6,300.1,746.4,298.9,745,298.9z"/>
		<path class="st14" d="M675.3,288.4h-3.4c-1.4,0-2.6,1.2-2.6,2.6v64.3c0.1,0,0.2,0,0.3,0l5.7-15.6V288.4z"/>
		<path class="st15" d="M684.7,314.2c0.3-1,1.2-1.7,2.3-1.7h3h51.6v-18.1v-22.6H719h-34.6v43.3L684.7,314.2z"/>
		<g>
			<path class="st16" d="M694.9,295.9H731c0.8,0,1.5-0.7,1.5-1.5s-0.7-1.5-1.5-1.5h-36.1c-0.8,0-1.5,0.7-1.5,1.5
				C693.4,295.3,694.1,295.9,694.9,295.9z"/>
			<path class="st16" d="M694.9,285.4H710c0.8,0,1.5-0.7,1.5-1.5s-0.7-1.5-1.5-1.5h-15.1c-0.8,0-1.5,0.7-1.5,1.5
				S694.1,285.4,694.9,285.4z"/>
			<path class="st16" d="M731,303.5h-36.1c-0.8,0-1.5,0.7-1.5,1.5s0.7,1.5,1.5,1.5H731c0.8,0,1.5-0.7,1.5-1.5
				C732.6,304.1,731.9,303.5,731,303.5z"/>
		</g>
		<polygon class="st16" points="684.4,315.2 684.4,274.9 679.8,274.9 679.8,327.5 		"/>
		<polygon class="st17" points="679.8,327.5 679.8,277.9 675.3,277.9 675.3,339.9 		"/>
		<text transform="matrix(1 0 0 1 700.4498 384.3003)" class="st4 st5">work</text>
	</g>
	<g id="ScrollBar_x5F_2">
		<rect x="873.5" y="252.7" class="st18" width="16.2" height="474.8"/>
		<rect x="873.5" y="275.4" class="st19" width="16.2" height="168.4"/>
		<g>
			<path class="st20" d="M885.8,262.5c0.3,0.3,0.8,0.3,1.1,0s0.3-0.8,0-1.1l-4.3-4.2c-0.3-0.3-0.8-0.3-1.1,0l-4.3,4.2
				c-0.3,0.3-0.3,0.8,0,1.1s0.8,0.3,1.1,0l3.7-3.4L885.8,262.5z"/>
		</g>
		<g>
			<path class="st20" d="M877.9,718.4c-0.3-0.3-0.8-0.3-1.1,0s-0.3,0.8,0,1.1l4.3,4.2c0.3,0.3,0.8,0.3,1.1,0l4.3-4.2
				c0.3-0.3,0.3-0.8,0-1.1s-0.8-0.3-1.1,0l-3.7,3.4L877.9,718.4z"/>
		</g>
	</g>
</g>
<g id="LeftContainer">
	<g id="ScrollBar_x5F_1">
		<rect x="214.4" y="256.9" class="st18" width="16.2" height="474.8"/>
		<rect id="bar" x="214.4" y="279.6" class="st19" width="16.2" height="168.4"/>
		<g>
			<path class="st20" d="M226.7,266.7c0.3,0.3,0.8,0.3,1.1,0s0.3-0.8,0-1.1l-4.3-4.2c-0.3-0.3-0.8-0.3-1.1,0l-4.3,4.2
				c-0.3,0.3-0.3,0.8,0,1.1c0.3,0.3,0.8,0.3,1.1,0l3.7-3.4L226.7,266.7z"/>
		</g>
		<g>
			<path class="st20" d="M218.8,722.5c-0.3-0.3-0.8-0.3-1.1,0s-0.3,0.8,0,1.1l4.3,4.2c0.3,0.3,0.8,0.3,1.1,0l4.3-4.2
				c0.3-0.3,0.3-0.8,0-1.1s-0.8-0.3-1.1,0l-3.7,3.4L218.8,722.5z"/>
		</g>
	</g>
	<g id="Unfolded">
		<g>
			<path class="st13" d="M104.2,313.9H94c-0.2,0-0.4-0.2-0.3-0.5L96,307c0-0.2,0.2-0.3,0.3-0.3h10.3c0.2,0,0.3,0.2,0.3,0.5l-2.3,6.4
				C104.5,313.8,104.4,313.9,104.2,313.9z"/>
			<g>
				<path class="st14" d="M105.1,304.8h-5.8l-1.1-1.6H94c-0.2,0-0.4,0.2-0.4,0.4v9.8l0,0l2.3-6.3c0-0.2,0.2-0.3,0.3-0.3h9.2v-1.7
					C105.5,304.9,105.3,304.8,105.1,304.8z"/>
			</g>
			<text transform="matrix(1 0 0 1 116 311.5002)" class="st4 st21">projects</text>
		</g>
		<g>
			<path class="st13" d="M104.3,336H94.1c-0.2,0-0.4-0.2-0.3-0.5l2.3-6.4c0-0.2,0.2-0.3,0.3-0.3h10.3c0.2,0,0.3,0.2,0.3,0.5
				l-2.3,6.4C104.7,335.9,104.5,336,104.3,336z"/>
			<g>
				<path class="st14" d="M105.3,326.8h-5.8l-1.1-1.6h-4.2c-0.2,0-0.4,0.2-0.4,0.4v9.8l0,0l2.3-6.3c0-0.2,0.2-0.3,0.3-0.3h9.2v-1.7
					C105.6,327,105.5,326.8,105.3,326.8z"/>
			</g>
			<text transform="matrix(1 0 0 1 116 333.8335)" class="st4 st21">projects</text>
		</g>
		<g>
			<path class="st13" d="M105,357H94.7c-0.2,0-0.4-0.2-0.3-0.5l2.3-6.4c0-0.2,0.2-0.3,0.3-0.3h10.3c0.2,0,0.3,0.2,0.3,0.5l-2.3,6.4
				C105.3,356.9,105.1,357,105,357z"/>
			<g>
				<path class="st14" d="M105.9,347.9h-5.8l-1.1-1.6h-4.2c-0.2,0-0.4,0.2-0.4,0.4v9.8l0,0l2.3-6.3c0-0.2,0.2-0.3,0.3-0.3h9.2v-1.7
					C106.3,348.1,106.1,347.9,105.9,347.9z"/>
			</g>
			<text transform="matrix(1 0 0 1 116 354.1669)" class="st4 st21">projects</text>
		</g>
		<g>
			<path class="st13" d="M105.1,377.6H94.8c-0.2,0-0.4-0.2-0.3-0.5l2.3-6.4c0-0.2,0.2-0.3,0.3-0.3h10.3c0.2,0,0.3,0.2,0.3,0.5
				l-2.3,6.4C105.4,377.5,105.3,377.6,105.1,377.6z"/>
			<text transform="matrix(1 0 0 1 116 376.0002)" class="st4 st21">projects</text>
			<g>
				<path class="st14" d="M106,368.5h-5.8l-1.1-1.6h-4.2c-0.2,0-0.4,0.2-0.4,0.4v9.8l0,0l2.3-6.3c0-0.2,0.2-0.3,0.3-0.3h9.2v-1.7
					C106.4,368.7,106.2,368.5,106,368.5z"/>
			</g>
		</g>
	</g>
	<text transform="matrix(1 0 0 1 94.4999 289.2502)" class="st4 st22">Category</text>
	<line id="Separator" class="st8" x1="232.3" y1="256.9" x2="232.3" y2="731.7"/>
	<g>
		<g>
			<path class="st20" d="M80.1,283.2c-0.2-0.2-0.5-0.2-0.7,0s-0.2,0.5,0,0.7l2.8,2.7c0.2,0.2,0.5,0.2,0.7,0l2.8-2.7
				c0.2-0.2,0.2-0.5,0-0.7s-0.5-0.2-0.7,0l-2.4,2.2L80.1,283.2z"/>
		</g>
	</g>
</g>
</svg>
